HIERARCHY
ROOT root
{
	OFFSET 0.000000 0.000000 0.000000
	CHANNELS 6 Xposition Yposition Zposition Zrotation Yrotation Xrotation
	JOINT lhip
	{
		OFFSET 0.058581 -0.082280 -0.017664
		CHANNELS 3 Zrotation Yrotation Xrotation
		JOINT lknee
		{
			OFFSET 0.043451 -0.386469 0.008037
			CHANNELS 3 Zrotation Yrotation Xrotation
			JOINT lankle
			{
				OFFSET -0.014790 -0.426874 -0.037428
				CHANNELS 3 Zrotation Yrotation Xrotation
				JOINT ltoe
				{
					OFFSET 0.041054 -0.060286 0.122042
					CHANNELS 3 Zrotation Yrotation Xrotation
					End Site
					{
						OFFSET 0.000000 0.000000 0.000000
					}
				}
			}
		}
	}
	JOINT rhip
	{
		OFFSET -0.060310 -0.090513 -0.013543
		CHANNELS 3 Zrotation Yrotation Xrotation
		JOINT rknee
		{
			OFFSET -0.043257 -0.383688 -0.004843
			CHANNELS 3 Zrotation Yrotation Xrotation
			JOINT rankle
			{
				OFFSET 0.019056 -0.420046 -0.034562
				CHANNELS 3 Zrotation Yrotation Xrotation
				JOINT rtoe
				{
					OFFSET -0.034840 -0.062106 0.130323
					CHANNELS 3 Zrotation Yrotation Xrotation
					End Site
					{
						OFFSET 0.000000 0.000000 0.000000
					}
				}
			}
		}
	}
	JOINT lowerback
	{
		OFFSET 0.004439 0.124404 -0.038385
		CHANNELS 3 Zrotation Yrotation Xrotation
		JOINT upperback
		{
			OFFSET 0.004488 0.137956 0.026820
			CHANNELS 3 Zrotation Yrotation Xrotation
			JOINT chest
			{
				OFFSET -0.002265 0.056032 0.002855
				CHANNELS 3 Zrotation Yrotation Xrotation
				JOINT lowerneck
				{
					OFFSET -0.013390 0.211636 -0.033468
					CHANNELS 3 Zrotation Yrotation Xrotation
					JOINT upperneck
					{
						OFFSET 0.010113 0.088937 0.050410
						CHANNELS 3 Zrotation Yrotation Xrotation
						End Site
						{
							OFFSET 0.000000 0.000000 0.000000
						}
					}
				}
				JOINT lclavicle
				{
					OFFSET 0.071702 0.114000 -0.018898
					CHANNELS 3 Zrotation Yrotation Xrotation
					JOINT lshoulder
					{
						OFFSET 0.122921 0.045205 -0.019046
						CHANNELS 3 Zrotation Yrotation Xrotation
						JOINT lelbow
						{
							OFFSET 0.255332 -0.015649 -0.022946
							CHANNELS 3 Zrotation Yrotation Xrotation
							JOINT lwrist
							{
								OFFSET 0.265709 0.012698 -0.007375
								CHANNELS 3 Zrotation Yrotation Xrotation
								End Site
								{
									OFFSET 0.000000 0.000000 0.000000
								}
							}
						}
					}
				}
				JOINT rclavicle
				{
					OFFSET -0.082954 0.112472 -0.023707
					CHANNELS 3 Zrotation Yrotation Xrotation
					JOINT rshoulder
					{
						OFFSET -0.113228 0.046853 -0.008472
						CHANNELS 3 Zrotation Yrotation Xrotation
						JOINT relbow
						{
							OFFSET -0.260127 -0.014369 -0.031269
							CHANNELS 3 Zrotation Yrotation Xrotation
							JOINT rwrist
							{
								OFFSET -0.269108 0.006794 -0.006027
								CHANNELS 3 Zrotation Yrotation Xrotation
								End Site
								{
									OFFSET 0.000000 0.000000 0.000000
								}
							}
						}
					}
				}
			}
		}
	}
}
MOTION
Frames: 11
Frame Time: 0.033333
1.169588 0.248457 0.865744 28.488266 -3.162873 83.369916 19.347842 6.672999 -4.256161 -3.853444 7.729910 50.219698 -4.276607 6.915078 -32.276421 0.000000 -0.000000 0.000000 -5.753109 11.291714 -32.513437 -5.239340 1.800208 69.747370 -0.601538 -8.028907 -29.882737 0.000000 -0.000000 0.000000 -9.050153 -7.959111 29.299153 -2.529624 -4.439319 -2.203138 -2.934278 -2.738176 -2.265296 4.453516 1.676946 -4.682530 13.216612 -6.249083 10.924359 -15.804392 -14.835042 -1.048799 -37.684139 -24.812611 7.945013 159.306659 -64.644961 -131.087940 6.571705 -21.940529 -20.446624 21.653619 18.928300 6.524094 66.314316 9.356325 21.848568 -10.701377 69.949825 7.091809 -6.082414 9.055991 -20.277936 
1.178642 0.252186 0.859331 20.656207 -1.908066 83.886124 19.736438 8.857047 -0.461129 -4.396489 6.513876 49.075286 -3.487585 11.604378 -36.014145 0.000000 -0.000000 0.000000 -4.022197 14.907380 -34.677639 -0.812080 4.614350 70.143610 0.317222 -10.345496 -28.886016 0.000000 -0.000000 0.000000 -11.552085 -11.304269 29.045752 -0.023823 -8.469096 -4.273145 -1.951507 -5.448302 -1.074815 2.061371 7.891973 -3.451588 12.079829 1.753872 11.112169 -12.494688 -19.522900 -2.325909 -19.087739 -27.152339 0.175897 132.561684 -72.162141 -114.103896 19.999657 -20.184658 -7.227691 20.090732 16.835709 1.480485 57.896332 5.024173 24.856875 5.268722 71.766833 20.841311 -8.453410 10.402816 -15.206913 
1.187432 0.253105 0.861936 13.085668 -0.734586 84.974822 19.069678 10.213949 2.068764 -4.503443 5.518982 47.769524 -3.582853 16.410130 -36.473204 0.000000 -0.000000 0.000000 -2.302163 18.105711 -36.478299 2.624632 6.396387 69.049871 0.994589 -13.233769 -26.624132 0.000000 -0.000000 0.000000 -12.773787 -12.575521 27.811494 2.464664 -10.779567 -5.839079 -0.602581 -7.456843 -0.921365 0.112565 14.115132 -1.533795 9.890329 7.446552 11.095673 -6.865356 -23.560425 -4.557930 -1.757921 -25.020657 -8.311701 65.295039 -73.739668 -53.643459 24.402286 -22.141321 7.759085 17.780430 14.968759 -2.792781 49.208778 1.693311 25.477427 9.241738 70.211185 22.606347 -8.894882 10.767450 -14.577052 
1.194677 0.251276 0.872281 6.832613 0.020192 85.905660 17.817107 10.309067 4.319547 -5.340216 4.494735 45.534267 -3.404977 20.709174 -34.652400 0.000000 -0.000000 0.000000 -0.748738 19.169755 -37.031245 5.181640 7.614998 66.715117 1.428697 -15.983868 -23.893623 0.000000 -0.000000 0.000000 -13.225236 -12.087731 26.291514 4.786171 -12.249102 -7.331948 0.706600 -8.906790 -0.291231 -1.743109 20.517171 0.235288 7.773227 11.574615 10.695987 1.190876 -26.188252 -7.883027 10.040754 -23.958210 -14.485127 16.706546 -55.538468 -18.049030 23.908550 -19.222942 9.197160 14.717606 11.817140 -6.937193 43.025280 -0.408379 26.495265 4.342391 67.469598 15.951133 -8.986072 9.755030 -14.031029 
1.200176 0.246829 0.886488 2.092881 0.643131 86.508454 17.033155 10.675912 7.380216 -6.503711 3.010194 41.625998 -3.606567 23.159928 -32.662361 0.000000 -0.000000 0.000000 0.072771 19.062208 -36.718068 7.621506 8.541917 63.836388 2.112820 -16.857447 -21.428942 0.000000 -0.000000 0.000000 -13.327156 -11.488360 25.065255 7.037126 -13.607555 -8.358394 2.062157 -10.015796 0.239365 -3.464645 26.974637 1.554353 5.028244 14.389720 10.100333 9.970317 -27.773423 -11.104253 18.161026 -22.237545 -20.561862 -0.676841 -30.556647 -17.706562 21.299186 -18.425168 8.241660 11.217336 8.350155 -10.799637 38.203408 -1.539653 27.556084 3.025232 65.823747 15.171201 -7.232249 10.048078 -12.238785 
1.204613 0.240597 0.901233 -1.068471 1.338686 87.226238 16.949570 12.119075 10.776683 -7.249659 1.090377 36.318989 -4.487876 24.005489 -31.398411 0.000000 -0.000000 0.000000 0.337822 18.484395 -36.344875 9.618452 9.256347 60.932056 2.842794 -16.473343 -19.356829 0.000000 -0.000000 0.000000 -12.937790 -11.837792 24.074286 9.006503 -15.116878 -8.832026 3.569866 -11.202594 -0.133091 -4.883238 31.656504 2.575637 2.013100 16.846490 9.615230 16.030407 -28.375825 -13.223442 24.056679 -17.424131 -25.103568 -7.603173 -12.399560 -19.859054 16.406443 -19.637510 15.185228 8.145664 5.922996 -13.595956 33.527516 -2.489573 27.389614 7.485468 65.819704 21.284059 -4.132644 10.796373 -11.690926 
1.208057 0.232940 0.914101 -3.267704 1.881970 88.282053 16.816303 13.642391 14.348163 -7.357804 -0.388132 29.534511 -5.256967 24.334821 -30.571751 0.000000 -0.000000 0.000000 0.576127 18.120115 -35.983203 10.436548 9.939998 58.169161 3.424400 -16.139477 -17.990957 0.000000 -0.000000 0.000000 -12.121998 -12.887578 22.769935 10.268819 -16.002359 -9.420486 4.699982 -12.170648 -0.503417 -5.914133 33.663152 3.172345 -0.148962 18.621035 8.942478 18.473876 -27.300809 -14.259803 28.875912 -12.841491 -28.620171 -10.159295 -6.512331 -23.027355 11.083181 -19.802291 18.565240 6.241086 3.560225 -15.239717 29.317419 -3.441539 27.215732 12.210708 66.469694 26.985127 -1.484940 11.255890 -11.245760 
1.210601 0.224259 0.922940 -5.017346 2.146741 89.325498 16.077434 14.775929 18.095190 -6.705036 -2.189698 22.027182 -5.885968 24.846762 -29.543461 0.000000 -0.000000 0.000000 0.853994 18.255230 -35.346964 10.552582 10.808463 55.827037 3.841042 -16.259878 -17.559971 0.000000 -0.000000 0.000000 -11.247067 -13.797643 21.101109 11.027099 -16.069245 -10.065340 5.081893 -12.789503 -0.340170 -5.886139 34.305958 3.628485 -1.568402 18.903432 8.169791 20.187358 -25.825976 -14.489611 32.011326 -10.066483 -29.228381 -10.276814 -4.702443 -20.739962 5.872017 -19.236931 23.601768 4.813887 1.134352 -16.187888 26.735131 -4.920513 26.993523 14.730219 66.630073 30.636456 1.576153 11.382754 -11.515901 
1.212175 0.215779 0.928121 -6.044233 2.474152 90.147241 15.222533 15.023030 21.558876 -5.378161 -3.964244 14.852483 -6.672559 25.592742 -28.167640 0.000000 -0.000000 0.000000 1.080373 18.494441 -34.661709 10.545441 11.455365 54.018372 4.215578 -16.203617 -17.626761 0.000000 -0.000000 0.000000 -10.406226 -14.399675 19.349412 11.627828 -15.950788 -10.255780 5.319040 -13.140317 -0.067795 -5.756769 34.465883 3.868491 -2.332645 18.444143 7.544149 21.618891 -24.741979 -14.638033 33.861294 -9.265701 -30.448829 -10.081256 -2.441675 -21.581864 2.731512 -18.291001 25.547231 3.856839 -0.990442 -16.619765 25.360308 -6.261435 26.889471 15.224502 65.856197 31.601124 4.099392 11.318652 -11.861779 
1.213171 0.208392 0.931228 -6.476468 2.954707 90.813307 14.737858 15.414114 24.522997 -3.677857 -4.819254 8.193608 -7.052263 26.451413 -26.409952 0.000000 -0.000000 0.000000 1.198682 18.416666 -34.310498 10.647555 11.494035 52.715808 4.444933 -15.772368 -17.688079 0.000000 -0.000000 0.000000 -9.464661 -15.100110 17.813313 12.077475 -15.832417 -10.403314 5.522524 -13.302923 0.145185 -5.822081 34.510174 4.015998 -2.763284 18.175736 7.409913 22.387859 -23.802882 -14.606768 34.305919 -9.313759 -31.653722 -10.172542 -1.503047 -23.608073 1.342236 -18.188817 25.174230 3.390958 -2.431386 -16.687036 25.035133 -7.019029 26.898576 15.335798 64.344970 31.798708 5.471459 11.223589 -10.966770 
1.213397 0.202496 0.932951 -6.662663 3.500554 91.267219 14.683973 16.335157 26.904251 -2.082401 -4.581210 2.625155 -7.080977 27.134576 -24.427437 0.000000 -0.000000 0.000000 1.462466 18.207935 -34.090811 10.643584 11.109066 51.775637 4.384317 -15.355425 -17.666890 0.000000 -0.000000 0.000000 -8.629125 -15.782644 16.581751 12.368021 -15.712316 -10.218960 5.619401 -13.354301 0.206599 -5.890729 34.449709 4.024430 -3.025422 17.963117 7.289401 22.800285 -23.204056 -14.403258 34.027316 -9.585999 -31.761970 -9.950794 -1.330462 -22.743174 0.002646 -17.557328 26.495923 3.316338 -3.077194 -16.459925 25.762999 -7.420101 26.756131 15.405850 62.740828 32.073944 6.609445 11.039350 -9.836411 
